<svg width="182" height="182" viewBox="0 0 182 182" fill="none" xmlns="http://www.w3.org/2000/svg">
<rect width="182" height="182" rx="91" transform="matrix(-2.18557e-07 1 1 2.18557e-07 0.000488281 6.10352e-05)" fill="white"/>
<path fill-rule="evenodd" clip-rule="evenodd" d="M112.145 95.5126L93.5645 114.143C92.4243 115.286 90.5757 115.286 89.4355 114.143L70.8551 95.5126C69.715 94.3693 69.715 92.5158 70.8551 91.3726C71.9953 90.2293 73.8439 90.2293 74.9841 91.3726L88.5804 105.005L88.5804 67L94.4196 67L94.4196 105.005L108.016 91.3726C109.156 90.2294 111.005 90.2294 112.145 91.3726C113.285 92.5158 113.285 94.3694 112.145 95.5126Z" fill="#2C313F"/>
</svg>
