<svg width="1975" height="257" viewBox="0 0 1975 257" fill="none" xmlns="http://www.w3.org/2000/svg">
<path d="M42.9348 54.2556V257H0V0H54.563L214.674 202.744V0H257.609V257H203.046L42.9348 54.2556Z" fill="white"/>
<path d="M536.685 0V42.8333H322.011V107.083H493.75V149.917H322.011V214.167H536.685V257H279.076V0H536.685Z" fill="white"/>
<path d="M686.956 214.167V257C651.416 257 621.064 244.447 595.899 219.342C570.734 194.237 558.152 163.956 558.152 128.5C558.152 93.0435 570.734 62.7627 595.899 37.6576C621.064 12.5525 651.416 0 686.956 0V42.8333C663.223 42.8333 642.948 51.2215 626.132 67.9979C609.435 84.6553 601.087 104.823 601.087 128.5C601.087 152.177 609.435 172.404 626.132 189.181C642.948 205.838 663.223 214.167 686.956 214.167Z" fill="white"/>
<path d="M805.027 0C825.779 0 843.49 7.31736 858.159 21.9521C872.828 36.5868 880.163 54.2556 880.163 74.9583V96.375C880.163 117.078 872.828 134.747 858.159 149.381C845.159 162.35 829.834 169.549 812.183 170.976L880.163 257H825.6L757.799 171.333H751.359V257H708.424V0H805.027ZM837.228 74.9583C837.228 66.0347 834.068 58.4794 827.747 52.2924C821.545 45.9863 813.972 42.8333 805.027 42.8333H751.359V128.5H805.027C813.972 128.5 821.545 125.406 827.747 119.219C834.068 112.913 837.228 105.299 837.228 96.375V74.9583Z" fill="white"/>
<path d="M1030.43 257C994.894 257 964.542 244.447 939.377 219.342C914.213 194.237 901.63 163.956 901.63 128.5C901.63 93.0435 914.213 62.7627 939.377 37.6576C964.542 12.5525 994.894 0 1030.43 0C1065.98 0 1096.33 12.5525 1121.49 37.6576C1146.66 62.7627 1159.24 93.0435 1159.24 128.5C1159.24 163.956 1146.66 194.237 1121.49 219.342C1096.33 244.447 1065.98 257 1030.43 257ZM1030.43 214.167C1054.17 214.167 1074.38 205.838 1091.08 189.181C1107.9 172.404 1116.3 152.177 1116.3 128.5C1116.3 104.823 1107.9 84.6553 1091.08 67.9979C1074.38 51.2215 1054.17 42.8333 1030.43 42.8333C1006.7 42.8333 986.427 51.2215 969.61 67.9979C952.914 84.6553 944.565 104.823 944.565 128.5C944.565 152.177 952.914 172.404 969.61 189.181C986.427 205.838 1006.7 214.167 1030.43 214.167Z" fill="white"/>
<path d="M1255.84 0H1298.78V42.8333H1255.84C1246.9 42.8333 1239.26 45.9863 1232.94 52.2924C1226.74 58.4794 1223.64 66.0347 1223.64 74.9583C1223.64 83.8819 1226.74 91.4968 1232.94 97.8028C1239.26 103.99 1246.9 107.083 1255.84 107.083C1276.59 107.083 1294.3 114.401 1308.97 129.035C1323.64 143.67 1330.98 161.339 1330.98 182.042C1330.98 202.744 1323.64 220.413 1308.97 235.048C1294.3 249.683 1276.59 257 1255.84 257H1180.71V214.167H1255.84C1264.79 214.167 1272.36 211.073 1278.56 204.886C1284.88 198.58 1288.04 190.965 1288.04 182.042C1288.04 173.118 1284.88 165.563 1278.56 159.376C1272.36 153.07 1264.79 149.917 1255.84 149.917C1235.09 149.917 1217.38 142.599 1202.71 127.965C1188.04 113.33 1180.71 95.6611 1180.71 74.9583C1180.71 54.2556 1188.04 36.5868 1202.71 21.9521C1217.38 7.31736 1235.09 0 1255.84 0Z" fill="white"/>
<path d="M1610.05 0V42.8333H1395.38V107.083H1567.12V149.917H1395.38V214.167H1610.05V257H1352.45V0H1610.05Z" fill="white"/>
<path d="M1781.79 257H1738.86V0H1781.79V257Z" fill="white"/>
<path d="M1846.2 0C1881.74 0 1912.09 12.5525 1937.25 37.6576C1962.42 62.7627 1975 93.0435 1975 128.5C1975 163.956 1962.42 194.237 1937.25 219.342C1912.09 244.447 1881.74 257 1846.2 257H1803.26V0H1846.2ZM1846.2 214.167C1869.93 214.167 1890.14 205.838 1906.84 189.181C1923.66 172.404 1932.07 152.177 1932.07 128.5C1932.07 104.823 1923.66 84.6553 1906.84 67.9979C1890.14 51.2215 1869.93 42.8333 1846.2 42.8333V214.167Z" fill="white"/>
</svg>
