<svg width="126" height="126" viewBox="0 0 126 126" fill="none" xmlns="http://www.w3.org/2000/svg">
<path d="M56.4804 111.734C57.0276 111.806 57.5067 111.966 57.9177 112.214C58.3197 112.469 58.6211 112.784 58.8218 113.157C59.0215 113.539 59.0954 113.956 59.0435 114.409L57.8895 114.256C57.9013 113.863 57.7863 113.512 57.5444 113.206C57.2935 112.907 56.8984 112.721 56.3591 112.65C55.8436 112.582 55.4224 112.655 55.0953 112.87C54.7593 113.092 54.5645 113.405 54.511 113.809C54.469 114.127 54.5221 114.396 54.6704 114.617C54.8186 114.839 55.0168 115.018 55.2648 115.156C55.5129 115.294 55.8511 115.451 56.2795 115.629C56.8078 115.844 57.2291 116.045 57.5433 116.232C57.8496 116.418 58.1017 116.677 58.2998 117.01C58.4888 117.35 58.5492 117.777 58.481 118.293C58.4212 118.745 58.2532 119.13 57.977 119.449C57.7008 119.767 57.3439 119.994 56.9063 120.13C56.4608 120.265 55.9684 120.297 55.4291 120.225C54.6519 120.122 54.0431 119.844 53.6028 119.39C53.1546 118.936 52.9413 118.383 52.9629 117.732L54.1525 117.89C54.1502 118.212 54.28 118.512 54.5419 118.788C54.8028 119.073 55.1752 119.247 55.659 119.311C56.111 119.371 56.4956 119.301 56.8126 119.101C57.1285 118.909 57.3143 118.603 57.3699 118.182C57.4098 117.881 57.3591 117.624 57.2177 117.412C57.0684 117.198 56.8777 117.024 56.6455 116.888C56.4043 116.759 56.0661 116.601 55.6308 116.415C55.1035 116.192 54.6833 115.983 54.3702 115.788C54.056 115.601 53.8004 115.337 53.6034 114.996C53.4053 114.664 53.341 114.235 53.4102 113.712C53.4638 113.308 53.6212 112.941 53.8826 112.612C54.144 112.284 54.4995 112.036 54.9492 111.87C55.399 111.704 55.9093 111.658 56.4804 111.734Z" fill="white"/>
<path d="M45.1478 113.679C44.8213 114.427 44.3598 115.025 43.7633 115.471C43.1636 115.925 42.5005 116.194 41.7741 116.279C41.0403 116.36 40.3178 116.245 39.6066 115.935C38.7708 115.57 38.1293 115.05 37.6821 114.375C37.2349 113.699 37.03 112.929 37.0673 112.064L38.2661 112.587C38.2771 113.142 38.4298 113.632 38.7242 114.057C39.0113 114.479 39.4335 114.812 39.9907 115.055C40.5259 115.289 41.0606 115.374 41.5947 115.31C42.1287 115.246 42.6175 115.036 43.0611 114.68C43.5015 114.331 43.8561 113.849 44.125 113.233C44.3906 112.624 44.5033 112.036 44.463 111.469C44.4195 110.909 44.2395 110.411 43.9231 109.976C43.6066 109.541 43.1808 109.207 42.6456 108.973C42.0883 108.73 41.559 108.643 41.0574 108.712C40.5454 108.785 40.0822 109.007 39.6679 109.376L38.4692 108.852C39.0752 108.244 39.7778 107.874 40.577 107.743C41.3731 107.619 42.189 107.74 43.0248 108.104C43.736 108.415 44.3129 108.863 44.7554 109.449C45.1874 110.039 45.4424 110.705 45.5204 111.446C45.5985 112.187 45.4742 112.932 45.1478 113.679Z" fill="white"/>
<path d="M29.9012 99.9464L29.2543 103.851L30.271 104.693L32.4522 102.059L33.2933 102.755L27.959 109.197L25.8794 107.475C25.3926 107.072 25.0517 106.65 24.8568 106.208C24.6556 105.761 24.5892 105.327 24.6575 104.906C24.7259 104.484 24.9105 104.092 25.2116 103.729C25.5789 103.285 26.0323 103.001 26.5717 102.876C27.105 102.746 27.6732 102.838 28.2765 103.15L28.8937 99.1122L29.9012 99.9464ZM29.7124 105.368L28.4738 104.342C28.0179 103.965 27.584 103.792 27.1724 103.825C26.7556 103.865 26.3916 104.072 26.0804 104.448C25.764 104.83 25.6331 105.22 25.6877 105.618C25.736 106.012 25.9913 106.4 26.4534 106.782L27.6919 107.808L29.7124 105.368Z" fill="white"/>
<path d="M21.8278 90.7508C22.2655 91.3916 22.5161 92.0778 22.5798 92.8094C22.6368 93.5454 22.5038 94.2514 22.1808 94.9274C21.8466 95.6012 21.3426 96.1683 20.6688 96.6285C19.9949 97.0887 19.2867 97.3496 18.544 97.4112C17.7903 97.4706 17.0843 97.3376 16.426 97.0122C15.7612 96.6912 15.2099 96.2103 14.7723 95.5695C14.3301 94.9221 14.0805 94.2304 14.0235 93.4943C13.9598 92.7628 14.0917 92.0623 14.4193 91.393C14.7469 90.7236 15.2509 90.1566 15.9313 89.6919C16.6118 89.2272 17.3233 88.964 18.066 88.9024C18.8086 88.8409 19.5124 88.9706 20.1772 89.2915C20.8354 89.617 21.3856 90.1034 21.8278 90.7508ZM21.045 91.2855C20.7156 90.8032 20.3078 90.4472 19.8215 90.2175C19.3306 89.9811 18.8027 89.896 18.2376 89.9623C17.668 90.0219 17.109 90.239 16.5607 90.6135C16.0058 90.9925 15.6002 91.4341 15.344 91.9385C15.0767 92.4407 14.9616 92.9601 14.9987 93.4967C15.0358 94.0333 15.2213 94.546 15.5551 95.0349C15.889 95.5237 16.2991 95.883 16.7854 96.1128C17.2717 96.3426 17.7997 96.4276 18.3693 96.368C18.9277 96.3063 19.4844 96.0859 20.0394 95.7069C20.5877 95.3324 20.9955 94.894 21.2628 94.3918C21.5256 93.8829 21.6385 93.3602 21.6014 92.8236C21.5598 92.2805 21.3743 91.7677 21.045 91.2855Z" fill="white"/>
<path d="M15.2734 80.3168L14.2991 77.5557L15.1365 77.2602L16.4741 81.0511L8.58673 83.8341L8.22338 82.8044L15.2734 80.3168Z" fill="white"/>
<path d="M12.5445 69.5706L12.1963 66.6634L13.078 66.5578L13.556 70.5493L5.2514 71.5439L5.12153 70.4597L12.5445 69.5706Z" fill="white"/>
<path d="M7.07295 45.7893C7.35186 44.921 7.7566 44.2233 8.28718 43.6963C8.81259 43.1593 9.42998 42.8198 10.1394 42.678C10.8512 42.5285 11.6146 42.5846 12.4296 42.8464C13.2445 43.1082 13.8979 43.5071 14.3895 44.0431C14.8759 44.5691 15.1764 45.2034 15.2908 45.9459C15.4 46.6784 15.3151 47.4788 15.0362 48.3471L14.2399 50.8264L6.2766 48.2685L7.07295 45.7893ZM14.1794 48.0719C14.5096 47.0436 14.4912 46.1722 14.1242 45.4578C13.7495 44.7408 13.0708 44.2245 12.0883 43.9089C11.0981 43.5909 10.2369 43.6168 9.50475 43.9866C8.77502 44.3488 8.24624 45.0402 7.91841 46.0608L7.45601 47.5004L13.717 49.5114L14.1794 48.0719Z" fill="white"/>
<path d="M21.5516 34.8324C21.1129 35.4725 20.5642 35.9548 19.9055 36.2792C19.2401 36.5991 18.5339 36.731 17.7868 36.6748C17.0377 36.6075 16.3265 36.3432 15.6534 35.882C14.9803 35.4207 14.4805 34.8551 14.154 34.1852C13.8254 33.5042 13.6936 32.798 13.7584 32.0666C13.8166 31.3306 14.0651 30.6426 14.5038 30.0025C14.947 29.3558 15.5012 28.8725 16.1666 28.5526C16.8253 28.2281 17.526 28.0973 18.2685 28.1601C19.0111 28.2228 19.7222 28.4871 20.4019 28.9529C21.0816 29.4187 21.5847 29.9866 21.9112 30.6564C22.2377 31.3263 22.3719 32.0292 22.3136 32.7652C22.2488 33.4966 21.9948 34.1857 21.5516 34.8324ZM20.7696 34.2965C21.0997 33.8148 21.2838 33.3056 21.3217 32.7691C21.3642 32.226 21.2521 31.7031 20.9856 31.2004C20.7236 30.6912 20.3188 30.2488 19.7711 29.8735C19.2167 29.4936 18.6581 29.2757 18.0952 29.2196C17.5302 29.1525 17.0044 29.2334 16.5177 29.4624C16.0311 29.6914 15.6204 30.05 15.2858 30.5384C14.9511 31.0267 14.7648 31.5391 14.7269 32.0756C14.6889 32.6121 14.801 33.135 15.063 33.6443C15.3229 34.1425 15.73 34.5815 16.2843 34.9614C16.832 35.3367 17.3884 35.558 17.9534 35.6251C18.5229 35.6857 19.0509 35.6014 19.5376 35.3725C20.0288 35.1369 20.4395 34.7782 20.7696 34.2965Z" fill="white"/>
<path d="M31.8057 13.1555L34.9377 21.2809L33.9633 22.0216L28.3416 17.8389L30.8108 24.4182L29.8532 25.1612L22.9214 19.9094L23.848 19.2049L29.592 23.7469L26.905 16.881L27.8794 16.1403L33.6853 20.605L30.8695 13.8672L31.8057 13.1555Z" fill="white"/>
<path d="M48.8445 14.8289L47.815 15.193L41.4534 10.379L43.6744 16.6577L42.6449 17.0219L39.8516 9.12537L40.8811 8.76121L47.2387 13.564L45.0217 7.29653L46.0512 6.93236L48.8445 14.8289Z" fill="white"/>
<path d="M57.3129 10.7219C56.9069 10.7626 56.5467 10.658 56.2322 10.4082C55.9248 10.1496 55.7508 9.8173 55.7101 9.41134C55.6685 8.99742 55.7731 8.63718 56.0237 8.33063C56.2815 8.01531 56.6134 7.83729 57.0194 7.79656C57.4333 7.75503 57.7979 7.86317 58.1132 8.12098C58.4278 8.37083 58.6058 8.70271 58.6473 9.11663C58.688 9.52259 58.5795 9.88323 58.3217 10.1985C58.0631 10.5059 57.7268 10.6803 57.3129 10.7219Z" fill="white"/>
<path d="M68.5557 13.4372C68.0084 13.3656 67.529 13.2061 67.1176 12.9587C66.7152 12.7044 66.4133 12.3906 66.212 12.0174C66.0117 11.6362 65.9372 11.219 65.9884 10.7658L67.1426 10.9167C67.1314 11.3106 67.247 11.6605 67.4894 11.9665C67.7407 12.2656 68.1361 12.4504 68.6755 12.521C69.1911 12.5884 69.6123 12.5143 69.939 12.2989C70.2746 12.0765 70.4689 11.7631 70.5218 11.3585C70.5633 11.0412 70.5097 10.772 70.3611 10.5509C70.2126 10.3297 70.0141 10.1505 69.7658 10.0131C69.5175 9.8758 69.1791 9.71859 68.7504 9.54153C68.2217 9.32719 67.8001 9.12684 67.4856 8.9405C67.1791 8.7552 66.9265 8.49627 66.7279 8.16372C66.5383 7.82428 66.4773 7.39675 66.5447 6.88114C66.6038 6.42899 66.7712 6.04344 67.0468 5.72448C67.3225 5.40553 67.679 5.17782 68.1164 5.04137C68.5617 4.90596 69.0541 4.87351 69.5935 4.94403C70.3709 5.04566 70.9801 5.32298 71.4211 5.77597C71.87 6.22999 72.0842 6.78242 72.0637 7.43325L70.8738 7.27769C70.8756 6.9552 70.7453 6.65579 70.4829 6.37944C70.2216 6.09516 69.849 5.92139 69.3651 5.85813C68.9129 5.79902 68.5285 5.86978 68.2118 6.07042C67.8962 6.26313 67.7109 6.56969 67.6559 6.99012C67.6165 7.29155 67.6676 7.54835 67.8093 7.76051C67.959 7.9737 68.15 8.14794 68.3824 8.28321C68.6238 8.41158 68.9623 8.56879 69.3978 8.75482C69.9255 8.9771 70.346 9.18537 70.6595 9.37965C70.974 9.56599 71.23 9.8294 71.4275 10.1699C71.6261 10.5024 71.6912 10.9305 71.6227 11.454C71.5698 11.8586 71.413 12.2253 71.1521 12.5543C70.8913 12.8833 70.5361 13.1313 70.0866 13.2985C69.6372 13.4656 69.1269 13.5118 68.5557 13.4372Z" fill="white"/>
<path d="M79.8852 11.4719C80.2105 10.7236 80.671 10.1256 81.2668 9.67796C81.8658 9.22301 82.5285 8.95275 83.2548 8.86717C83.9884 8.78478 84.7111 8.89825 85.4228 9.20757C86.2592 9.5711 86.9015 10.0902 87.3498 10.7647C87.798 11.4393 88.0042 12.2093 87.9683 13.0747L86.7687 12.5533C86.7568 11.9986 86.6033 11.5089 86.3082 11.084C86.0204 10.6624 85.5977 10.3304 85.0401 10.088C84.5045 9.85522 83.9697 9.77107 83.4358 9.83558C82.9018 9.90008 82.4133 10.1108 81.9703 10.4678C81.5305 10.8175 81.1766 11.3005 80.9088 11.9168C80.6441 12.5257 80.5324 13.114 80.5736 13.6814C80.618 14.2415 80.7987 14.7388 81.1159 15.1732C81.433 15.6076 81.8594 15.9412 82.395 16.174C82.9526 16.4164 83.4821 16.5026 83.9835 16.4327C84.4955 16.3586 84.9583 16.1367 85.3719 15.7669L86.5715 16.2883C85.9665 16.8976 85.2645 17.2686 84.4655 17.401C83.6696 17.5262 82.8535 17.407 82.0171 17.0434C81.3054 16.7341 80.7278 16.2868 80.2844 15.7016C79.8514 15.1121 79.5954 14.4469 79.5162 13.706C79.437 12.965 79.56 12.2203 79.8852 11.4719Z" fill="white"/>
<path d="M95.1537 25.1813L95.7943 21.2757L94.7763 20.4355L92.5993 23.0731L91.7571 22.378L97.0811 15.9273L99.1635 17.646C99.6509 18.0483 99.9925 18.4702 100.188 18.9118C100.39 19.3584 100.457 19.7924 100.389 20.2137C100.322 20.6351 100.138 21.0277 99.8373 21.3917C99.4706 21.836 99.0177 22.1208 98.4785 22.2463C97.9454 22.3769 97.377 22.2864 96.7733 21.9748L96.1625 26.0139L95.1537 25.1813ZM95.3339 19.7599L96.574 20.7834C97.0306 21.1602 97.4647 21.3318 97.8763 21.2981C98.293 21.2582 98.6567 21.0501 98.9673 20.6737C99.283 20.2912 99.4133 19.9008 99.3582 19.5026C99.3092 19.1095 99.0533 18.722 98.5906 18.3401L97.3504 17.3165L95.3339 19.7599Z" fill="white"/>
<path d="M103.242 34.3647C102.803 33.7246 102.551 33.0388 102.486 32.3073C102.428 31.5714 102.56 30.8652 102.882 30.1887C103.215 29.5143 103.718 28.9465 104.391 28.4852C105.064 28.0239 105.772 27.7619 106.515 27.6991C107.269 27.6384 107.975 27.7703 108.633 28.0947C109.299 28.4146 109.851 28.8946 110.29 29.5347C110.733 30.1815 110.983 30.8728 111.042 31.6087C111.106 32.3402 110.976 33.0408 110.649 33.7107C110.323 34.3806 109.82 34.9484 109.14 35.4142C108.46 35.88 107.749 36.1443 107.006 36.2071C106.264 36.2698 105.56 36.1413 104.895 35.8214C104.236 35.4969 103.685 35.0114 103.242 34.3647ZM104.024 33.8288C104.354 34.3105 104.762 34.6659 105.249 34.8948C105.74 35.1304 106.268 35.2146 106.833 35.1475C107.403 35.087 107.961 34.869 108.509 34.4937C109.063 34.1138 109.468 33.6715 109.724 33.1667C109.99 32.664 110.104 32.1444 110.066 31.6079C110.028 31.0714 109.842 30.559 109.508 30.0706C109.173 29.5823 108.762 29.2237 108.276 28.9947C107.789 28.7657 107.261 28.6815 106.691 28.742C106.133 28.8046 105.577 29.0259 105.022 29.4058C104.474 29.7811 104.067 30.2201 103.801 30.7228C103.539 31.2321 103.427 31.755 103.465 32.2915C103.507 32.8346 103.694 33.347 104.024 33.8288Z" fill="white"/>
<path d="M109.813 44.7872L110.791 47.5468L109.954 47.8436L108.611 44.0548L116.494 41.2593L116.859 42.2885L109.813 44.7872Z" fill="white"/>
<path d="M112.559 55.5292L112.912 58.4359L112.03 58.5429L111.546 54.5522L119.849 53.5443L119.98 54.6283L112.559 55.5292Z" fill="white"/>
<path d="M118.068 79.3025C117.791 80.1712 117.387 80.8695 116.857 81.3974C116.333 81.9353 115.716 82.2757 115.007 82.4187C114.295 82.5693 113.532 82.5144 112.716 82.2539C111.901 81.9934 111.247 81.5955 110.754 81.0603C110.267 80.5351 109.966 79.9013 109.85 79.1589C109.74 78.4266 109.823 77.6261 110.101 76.7573L110.893 74.2768L118.86 76.822L118.068 79.3025ZM110.958 77.0312C110.629 78.06 110.649 78.9313 111.017 79.6452C111.393 80.3616 112.073 80.8768 113.056 81.1908C114.046 81.5073 114.908 81.48 115.639 81.109C116.368 80.7457 116.896 80.0534 117.222 79.0323L117.682 77.592L111.418 75.5909L110.958 77.0312Z" fill="white"/>
<path d="M103.607 90.2818C104.045 89.641 104.592 89.1579 105.251 88.8324C105.916 88.5115 106.622 88.3785 107.369 88.4334C108.118 88.4995 108.83 88.7627 109.503 89.2229C110.177 89.6831 110.678 90.2479 111.005 90.9172C111.335 91.5977 111.468 92.3037 111.404 93.0352C111.347 93.7713 111.1 94.4597 110.662 95.1005C110.22 95.7479 109.667 96.2321 109.002 96.5531C108.344 96.8785 107.643 97.0105 106.901 96.9489C106.158 96.8873 105.446 96.6242 104.766 96.1595C104.085 95.6947 103.581 95.1277 103.254 94.4584C102.926 93.789 102.791 93.0863 102.848 92.3503C102.912 91.6187 103.165 90.9292 103.607 90.2818ZM104.39 90.8165C104.06 91.2987 103.877 91.8082 103.84 92.3447C103.798 92.8879 103.911 93.4106 104.179 93.9129C104.441 94.4217 104.847 94.8634 105.395 95.2379C105.95 95.6169 106.509 95.8339 107.072 95.8891C107.637 95.9553 108.163 95.8736 108.649 95.6438C109.136 95.414 109.546 95.0547 109.88 94.5659C110.213 94.077 110.399 93.5643 110.436 93.0277C110.473 92.4911 110.36 91.9684 110.097 91.4596C109.837 90.9618 109.429 90.5234 108.874 90.1444C108.326 89.77 107.769 89.5496 107.204 89.4834C106.634 89.4237 106.106 89.5088 105.62 89.7385C105.129 89.9749 104.719 90.3342 104.39 90.8165Z" fill="white"/>
<path d="M93.3874 111.975L90.2424 103.854L91.2156 103.112L96.8439 107.286L94.3643 100.711L95.3207 99.966L102.261 105.207L101.335 105.913L95.5841 101.38L98.2821 108.241L97.3089 108.984L91.4959 104.528L94.3224 111.262L93.3874 111.975Z" fill="white"/>
<path d="M76.3459 110.329L77.3748 109.963L83.7441 114.767L81.5131 108.492L82.542 108.126L85.3479 116.018L84.319 116.384L77.9537 111.591L80.1807 117.855L79.1518 118.221L76.3459 110.329Z" fill="white"/>
<path d="M67.8841 114.449C68.29 114.407 68.6504 114.511 68.9653 114.761C69.2731 115.019 69.4477 115.351 69.489 115.757C69.5312 116.171 69.4272 116.531 69.1771 116.838C68.9198 117.154 68.5882 117.332 68.1823 117.374C67.7684 117.416 67.4036 117.308 67.0879 117.051C66.773 116.802 66.5944 116.47 66.5523 116.056C66.5109 115.65 66.6188 115.289 66.8761 114.974C67.1343 114.666 67.4703 114.491 67.8841 114.449Z" fill="white"/>
</svg>
