<svg width="1907" height="1115" viewBox="0 0 1907 1115" fill="none" xmlns="http://www.w3.org/2000/svg">
<rect y="81" width="1907" height="1034" rx="1" fill="#EC9D61"/>
<path d="M1166.86 182.133C1223.5 75.2626 1253.72 35.8873 1351.94 -68.1797C1612.59 -281.305 1870.4 -334.137 2091.02 -258.149C2311.65 -182.161 2312.24 -43.6012 2123.33 182.133C1472.5 816.855 1652.83 1079.09 1419.7 1329.4C1302.01 1455.77 1185.26 1480.74 865.786 1424.76C592.14 1351.56 475.166 1245.3 460 995.649C470.685 768.531 536.719 660.348 785.417 509.178C895.53 433.106 978.4 413.151 1078.53 319.209C1103.79 270.042 1166.86 182.133 1166.86 182.133Z" fill="#EB823A" fill-opacity="0.38"/>
<path d="M1230.93 269.591C1266.34 201.694 1285.24 176.678 1346.65 110.562C1509.61 -24.8408 1670.8 -58.4058 1808.73 -10.1292C1946.66 38.1475 1947.04 126.178 1828.93 269.591C1422.02 672.843 1534.77 839.445 1389.02 998.474C1315.43 1078.76 1242.44 1094.63 1042.7 1059.06C871.615 1012.55 798.482 945.043 789 786.435C795.68 642.142 836.965 573.411 992.453 477.37C1061.3 429.04 1113.11 416.362 1175.71 356.679C1191.5 325.442 1230.93 269.591 1230.93 269.591Z" fill="#E67F33" fill-opacity="0.51"/>
</svg>
