<svg width="200" height="38" viewBox="0 0 200 38" fill="none" xmlns="http://www.w3.org/2000/svg">
<g clip-path="url(#clip0)">
<path d="M17.1883 0C18.8909 0 20.4638 0.130422 21.9069 0.521689C23.3501 0.782533 24.5338 1.32052 25.5878 1.97263C26.6418 2.62475 27.4201 3.554 27.9552 4.74411C28.4741 5.93421 28.7498 7.38515 28.7498 8.96652C28.7498 10.8087 28.3606 12.3901 27.4364 13.5802C26.6418 14.7703 25.3446 15.83 23.7555 16.6125C25.9932 17.2646 27.6958 18.4547 28.7336 20.0361C29.7714 21.6175 30.4362 23.5901 30.4362 25.8399C30.4362 27.6821 30.047 29.2635 29.3822 30.584C28.7336 31.9045 27.6796 33.0946 26.4959 33.8772C25.3121 34.676 23.869 35.3281 22.2961 35.7194C20.7232 36.1106 19.1503 36.3715 17.5774 36.3715L0 36.4041V0H17.1883ZM16.1343 14.7703C17.5774 14.7703 18.7611 14.379 19.6692 13.7106C20.5773 13.0422 20.9826 11.8684 20.9826 10.4175C20.9826 9.61863 20.8529 8.8361 20.5935 8.31441C20.334 7.79272 19.9449 7.38515 19.4098 6.99389C18.8909 6.73304 18.3558 6.4722 17.7071 6.34178C17.0585 6.21135 16.3937 6.21135 15.6154 6.21135H8.01038V14.7866C8.01038 14.7703 16.1343 14.7703 16.1343 14.7703ZM16.5234 30.3395C17.318 30.3395 18.0963 30.209 18.7611 30.0786C19.4098 29.9482 20.0746 29.6873 20.5935 29.2798C21.1124 28.8722 21.5178 28.4809 21.9069 27.8288C22.1664 27.1767 22.4258 26.3779 22.4258 25.4486C22.4258 23.6064 21.9069 22.2859 20.8529 21.3566C19.7989 20.5578 18.3558 20.1665 16.6532 20.1665H8.01038V30.3231H16.5234V30.3395Z" fill="black"/>
<path d="M41.8518 30.209C42.9058 31.2687 44.4787 31.7904 46.5705 31.7904C48.0136 31.7904 49.3271 31.3991 50.3811 30.7307C51.4351 29.9319 52.0837 29.1493 52.3431 28.3505H58.7644C57.7104 31.5132 56.1375 33.763 54.0457 35.214C51.954 36.5345 49.4568 37.317 46.4407 37.317C44.349 37.317 42.5004 36.9258 40.7978 36.2573C39.0952 35.6052 37.7818 34.676 36.598 33.3554C35.4143 32.1653 34.5063 30.7144 33.9711 29.0026C33.3225 27.2908 33.0469 25.4486 33.0469 23.3292C33.0469 21.3566 33.3063 19.4981 33.9711 17.7863C34.636 16.0745 35.544 14.6236 36.7278 13.303C37.9115 12.1129 39.3546 11.0533 40.9275 10.4012C42.6301 9.74905 44.3327 9.34148 46.4407 9.34148C48.6785 9.34148 50.6405 9.73274 52.3431 10.662C54.0457 11.5913 55.3592 12.6346 56.4132 14.216C57.4672 15.6669 58.2455 17.3787 58.7806 19.221C59.0401 21.0632 59.1698 22.9217 59.0401 25.0247H40.0195C40.0195 27.1767 40.7978 29.1493 41.8518 30.209ZM50.1216 16.3517C49.1974 15.4224 47.7542 14.9007 46.0516 14.9007C44.8679 14.9007 43.9598 15.1616 43.1652 15.5528C42.3707 15.9441 41.8518 16.4821 41.3329 17.0038C40.814 17.5255 40.5384 18.1939 40.4086 18.846C40.2789 19.4981 40.1492 20.0361 40.1492 20.5578H51.954C51.6945 18.6014 51.0297 17.2809 50.1216 16.3517ZM38.5763 2.51062H53.2674V6.06462H38.5763V2.51062Z" fill="black"/>
<path d="M69.272 0V13.7106H69.4017C70.326 12.1293 71.4935 11.0696 72.9366 10.4175C74.3798 9.76536 75.6933 9.35779 77.1364 9.35779C79.0985 9.35779 80.6714 9.61863 81.8551 10.1566C83.0388 10.6783 84.0928 11.4771 84.7414 12.4064C85.39 13.3357 85.9251 14.5095 86.1846 15.83C86.444 17.1505 86.5737 18.6015 86.5737 20.3132V36.5345H79.3579V21.6338C79.3579 19.384 78.9688 17.8026 78.3039 16.7592C77.6391 15.7159 76.4878 15.1616 74.7852 15.1616C72.8231 15.1616 71.38 15.8137 70.5854 16.8734C69.6611 18.0635 69.272 20.0361 69.272 22.6771V36.5345H62.0562V0H69.272Z" fill="black"/>
<path d="M91.8437 13.9878C92.6383 12.7977 93.5463 12.0151 94.73 11.2163C95.9138 10.5642 97.2272 10.0262 98.6704 9.76535C100.114 9.50451 101.557 9.37408 103 9.37408C104.313 9.37408 105.627 9.50451 107.07 9.63493C108.383 9.76535 109.697 10.1566 110.751 10.6946C111.935 11.2163 112.713 12.0151 113.507 12.9444C114.156 13.8736 114.561 15.1942 114.561 16.7755V30.6329C114.561 31.823 114.691 33.0131 114.821 34.0565C114.951 35.1161 115.34 36.0291 115.745 36.5671H108.4C108.14 36.3062 108.01 35.7683 107.881 35.377C107.751 34.9857 107.751 34.4477 107.751 34.0565C106.567 35.2466 105.254 36.0291 103.681 36.5671C102.108 37.0888 100.535 37.2192 98.9622 37.2192C97.6488 37.2192 96.5948 37.0888 95.4273 36.6975C94.3733 36.4367 93.4652 35.8987 92.541 35.2466C91.7464 34.5945 91.0978 33.7956 90.5789 32.7359C90.1897 31.6763 89.9303 30.6329 89.9303 29.1819C89.9303 27.731 90.1897 26.4105 90.7249 25.4812C91.2437 24.552 91.9086 23.7694 92.6869 23.101C93.4815 22.5793 94.5192 22.0413 95.5732 21.7805C96.6272 21.5196 97.665 21.2588 98.8487 21.1284C99.9027 20.998 100.941 20.8675 101.995 20.7371C103.049 20.6067 103.957 20.4763 104.751 20.3458C105.546 20.085 106.194 19.8242 106.713 19.4166C107.232 19.0253 107.362 18.4873 107.362 17.7048C107.362 16.906 107.232 16.2539 106.973 15.8626C106.713 15.4713 106.324 15.0637 105.919 14.8029C105.529 14.5421 104.994 14.4116 104.475 14.2812C103.957 14.1508 103.292 14.1508 102.643 14.1508C101.2 14.1508 100.146 14.4116 99.3676 15.0801C98.5731 15.7322 98.0542 16.7918 97.9245 18.1124H90.7086C90.66 16.4821 91.1789 15.0311 91.8437 13.9878ZM106.146 24.2748C105.756 24.4052 105.221 24.5357 104.702 24.6661C104.184 24.7965 103.648 24.7965 103 24.9269C102.481 25.0573 101.816 25.0573 101.297 25.1878C100.778 25.3182 100.243 25.4486 99.7244 25.579C99.2055 25.7095 98.6704 25.9703 98.4109 26.2311C98.0218 26.492 97.7623 26.8833 97.4867 27.2908C97.0975 27.8125 97.0975 28.3505 97.0975 29.0026C97.0975 29.6547 97.2272 30.1927 97.4867 30.584C97.7461 30.9752 98.0055 31.3828 98.4109 31.6437C98.8001 31.9045 99.3352 32.0349 99.8541 32.1653C100.373 32.2958 100.908 32.2958 101.557 32.2958C103 32.2958 104.054 32.0349 104.832 31.6437C105.627 31.122 106.146 30.584 106.535 29.9319C106.924 29.2798 107.183 28.6113 107.183 27.9592C107.313 27.3071 107.313 26.7691 107.313 26.3779V23.6064C106.924 23.8672 106.535 24.1444 106.146 24.2748Z" fill="black"/>
<path d="M125.426 10.0262V13.7269H125.555C126.48 12.1456 127.647 11.0859 129.09 10.4338C130.533 9.78165 132.106 9.37408 133.55 9.37408C135.512 9.37408 137.084 9.63493 138.268 10.1729C139.582 10.6946 140.506 11.4934 141.155 12.4227C141.803 13.352 142.338 14.5258 142.727 15.8463C142.987 17.1668 143.117 18.6178 143.117 20.3295V36.5508H135.901V21.6501C135.901 19.4003 135.512 17.8189 134.847 16.7755C134.198 15.7159 133.014 15.0637 131.166 15.0637C129.204 15.0637 127.761 15.8626 126.836 17.0364C125.912 18.2265 125.523 20.1991 125.523 22.8402V36.6975H118.307V10.0262C118.34 10.0262 125.426 10.0262 125.426 10.0262Z" fill="black"/>
<path d="M159.283 14.7703C158.1 14.7703 157.191 15.0311 156.397 15.5691C155.602 16.0908 154.954 16.7592 154.435 17.6722C153.916 18.471 153.64 19.384 153.381 20.4437C153.121 21.5033 153.121 22.4163 153.121 23.476C153.121 24.4052 153.251 25.4486 153.381 26.3779C153.64 27.4376 153.9 28.2201 154.435 29.0189C154.954 29.8178 155.489 30.4699 156.267 30.9916C157.062 31.5132 157.97 31.7904 159.154 31.7904C160.856 31.7904 162.17 31.2687 163.224 30.3394C164.148 29.4102 164.796 28.0897 164.926 26.3779H171.883C171.364 29.9319 170.05 32.5729 167.813 34.4314C165.575 36.2736 162.688 37.2029 159.154 37.2029C157.191 37.2029 155.343 36.8116 153.77 36.1432C152.067 35.4911 150.754 34.5619 149.57 33.3718C148.387 32.1817 147.479 30.7307 146.814 29.1493C146.165 27.4376 145.889 25.7258 145.889 23.7368C145.889 21.6338 146.149 19.7753 146.814 18.0635C147.462 16.3517 148.257 14.7703 149.441 13.4498C150.624 12.1293 152.067 11.2 153.64 10.4175C155.343 9.76536 157.175 9.35779 159.283 9.35779C160.856 9.35779 162.299 9.61863 163.742 10.0099C165.186 10.4012 166.499 11.0696 167.553 11.8521C168.737 12.6509 169.645 13.6943 170.31 15.0148C170.958 16.2049 171.364 17.7863 171.493 19.4981H164.407C164.132 16.3517 162.429 14.7703 159.283 14.7703Z" fill="black"/>
<path d="M182.763 30.209C183.817 31.2687 185.52 31.7904 187.482 31.7904C188.925 31.7904 190.238 31.3991 191.292 30.7307C192.346 29.9319 192.995 29.1493 193.254 28.3505H199.546C198.492 31.5132 196.919 33.763 194.827 35.214C192.735 36.5345 190.238 37.317 187.222 37.317C185.13 37.317 183.282 36.9258 181.579 36.2574C179.877 35.6052 178.563 34.676 177.38 33.3555C176.196 32.1654 175.288 30.7144 174.753 29.0026C174.104 27.2908 173.828 25.4486 173.828 23.3293C173.828 21.3566 174.088 19.4981 174.753 17.7863C175.401 16.0745 176.326 14.6236 177.509 13.3031C178.693 12.113 180.136 11.0533 181.709 10.4012C183.412 9.74906 185.244 9.34149 187.222 9.34149C189.46 9.34149 191.422 9.73276 192.995 10.662C194.697 11.5913 196.011 12.6346 197.065 14.216C198.119 15.667 198.897 17.3788 199.432 19.221C199.951 21.0632 200.081 23.0521 199.951 25.1552H180.931C180.931 27.1767 181.709 29.1493 182.763 30.209ZM191.163 16.3517C190.238 15.4224 188.795 14.9007 187.093 14.9007C185.909 14.9007 185.001 15.1616 184.206 15.5528C183.412 15.9441 182.763 16.4821 182.374 17.0038C181.985 17.5255 181.579 18.1939 181.45 18.846C181.32 19.4981 181.19 20.0361 181.19 20.5578H192.995C192.606 18.6015 191.941 17.2809 191.163 16.3517Z" fill="black"/>
</g>
<defs>
<clipPath id="clip0">
<rect width="200" height="37.3333" fill="white"/>
</clipPath>
</defs>
</svg>
