<svg width="181" height="180" viewBox="0 0 181 180" fill="none" xmlns="http://www.w3.org/2000/svg">
<g clip-path="url(#clip0_4_1350)">
<g filter="url(#filter0_i_4_1350)">
<circle cx="90.5" cy="90" r="90" fill="#D9D9D9"/>
</g>
<circle cx="90.5" cy="90" r="89" stroke="url(#paint0_linear_4_1350)" stroke-width="2"/>
<g filter="url(#filter1_i_4_1350)">
<circle cx="91" cy="90.5" r="80.5" fill="white"/>
</g>
<circle cx="91" cy="90.5" r="78.5" stroke="url(#paint1_linear_4_1350)" stroke-width="4"/>
<g filter="url(#filter2_i_4_1350)">
<g opacity="0.3" filter="url(#filter3_dd_4_1350)">
<path d="M99.7281 62.375C100.809 62.375 101.859 62.75 102.697 63.4375L103.041 63.75L107.922 68.625H116C117.577 68.6245 119.096 69.22 120.252 70.2922C121.408 71.3643 122.116 72.8339 122.234 74.4062L122.25 74.875V112.375C122.25 113.952 121.655 115.471 120.583 116.627C119.511 117.783 118.041 118.491 116.469 118.609L116 118.625H66C64.4232 118.625 62.9045 118.03 61.7483 116.958C60.5921 115.886 59.8839 114.416 59.7656 112.844L59.75 112.375V74.875C59.7495 73.2982 60.345 71.7795 61.4172 70.6233C62.4893 69.4671 63.9589 68.7589 65.5312 68.6406L66 68.625H74.0813L78.9562 63.75C79.7219 62.9813 80.7313 62.5031 81.8094 62.3969L82.2719 62.375H99.7281Z" fill="black"/>
</g>
<path d="M91 76.4375C78.9719 76.4375 71.4531 89.4594 77.4688 99.875C78.8401 102.25 80.8125 104.223 83.1877 105.594C85.563 106.965 88.2573 107.687 91 107.688C103.028 107.688 110.547 94.6656 104.531 84.25C103.16 81.8748 101.187 79.9023 98.8123 78.531C96.437 77.1596 93.7427 76.4376 91 76.4375Z" fill="white"/>
</g>
</g>
<defs>
<filter id="filter0_i_4_1350" x="0.5" y="-11" width="180" height="191" filterUnits="userSpaceOnUse" color-interpolation-filters="sRGB">
<feFlood flood-opacity="0" result="BackgroundImageFix"/>
<feBlend mode="normal" in="SourceGraphic" in2="BackgroundImageFix" result="shape"/>
<feColorMatrix in="SourceAlpha" type="matrix" values="0 0 0 0 0 0 0 0 0 0 0 0 0 0 0 0 0 0 127 0" result="hardAlpha"/>
<feOffset dy="-11"/>
<feGaussianBlur stdDeviation="11.3"/>
<feComposite in2="hardAlpha" operator="arithmetic" k2="-1" k3="1"/>
<feColorMatrix type="matrix" values="0 0 0 0 0 0 0 0 0 0 0 0 0 0 0 0 0 0 0.25 0"/>
<feBlend mode="normal" in2="shape" result="effect1_innerShadow_4_1350"/>
</filter>
<filter id="filter1_i_4_1350" x="10.5" y="10" width="161" height="172" filterUnits="userSpaceOnUse" color-interpolation-filters="sRGB">
<feFlood flood-opacity="0" result="BackgroundImageFix"/>
<feBlend mode="normal" in="SourceGraphic" in2="BackgroundImageFix" result="shape"/>
<feColorMatrix in="SourceAlpha" type="matrix" values="0 0 0 0 0 0 0 0 0 0 0 0 0 0 0 0 0 0 127 0" result="hardAlpha"/>
<feMorphology radius="11" operator="dilate" in="SourceAlpha" result="effect1_innerShadow_4_1350"/>
<feOffset dy="11"/>
<feGaussianBlur stdDeviation="16.05"/>
<feComposite in2="hardAlpha" operator="arithmetic" k2="-1" k3="1"/>
<feColorMatrix type="matrix" values="0 0 0 0 0 0 0 0 0 0 0 0 0 0 0 0 0 0 0.25 0"/>
<feBlend mode="normal" in2="shape" result="effect1_innerShadow_4_1350"/>
</filter>
<filter id="filter2_i_4_1350" x="53.5" y="53" width="75" height="79" filterUnits="userSpaceOnUse" color-interpolation-filters="sRGB">
<feFlood flood-opacity="0" result="BackgroundImageFix"/>
<feBlend mode="normal" in="SourceGraphic" in2="BackgroundImageFix" result="shape"/>
<feColorMatrix in="SourceAlpha" type="matrix" values="0 0 0 0 0 0 0 0 0 0 0 0 0 0 0 0 0 0 127 0" result="hardAlpha"/>
<feOffset dy="4"/>
<feGaussianBlur stdDeviation="4.5"/>
<feComposite in2="hardAlpha" operator="arithmetic" k2="-1" k3="1"/>
<feColorMatrix type="matrix" values="0 0 0 0 0 0 0 0 0 0 0 0 0 0 0 0 0 0 0.15 0"/>
<feBlend mode="normal" in2="shape" result="effect1_innerShadow_4_1350"/>
</filter>
<filter id="filter3_dd_4_1350" x="55.75" y="54.375" width="70.5" height="71.25" filterUnits="userSpaceOnUse" color-interpolation-filters="sRGB">
<feFlood flood-opacity="0" result="BackgroundImageFix"/>
<feColorMatrix in="SourceAlpha" type="matrix" values="0 0 0 0 0 0 0 0 0 0 0 0 0 0 0 0 0 0 127 0" result="hardAlpha"/>
<feOffset dy="3"/>
<feGaussianBlur stdDeviation="2"/>
<feComposite in2="hardAlpha" operator="out"/>
<feColorMatrix type="matrix" values="0 0 0 0 0 0 0 0 0 0 0 0 0 0 0 0 0 0 0.25 0"/>
<feBlend mode="normal" in2="BackgroundImageFix" result="effect1_dropShadow_4_1350"/>
<feColorMatrix in="SourceAlpha" type="matrix" values="0 0 0 0 0 0 0 0 0 0 0 0 0 0 0 0 0 0 127 0" result="hardAlpha"/>
<feOffset dy="-4"/>
<feGaussianBlur stdDeviation="2"/>
<feComposite in2="hardAlpha" operator="out"/>
<feColorMatrix type="matrix" values="0 0 0 0 1 0 0 0 0 1 0 0 0 0 1 0 0 0 1 0"/>
<feBlend mode="normal" in2="effect1_dropShadow_4_1350" result="effect2_dropShadow_4_1350"/>
<feBlend mode="normal" in="SourceGraphic" in2="effect2_dropShadow_4_1350" result="shape"/>
</filter>
<linearGradient id="paint0_linear_4_1350" x1="90.5" y1="0" x2="90.5" y2="180" gradientUnits="userSpaceOnUse">
<stop stop-color="white"/>
<stop offset="1" stop-color="#999999"/>
</linearGradient>
<linearGradient id="paint1_linear_4_1350" x1="91" y1="10" x2="91" y2="171" gradientUnits="userSpaceOnUse">
<stop stop-color="#CDCDCD"/>
<stop offset="1" stop-color="white"/>
</linearGradient>
<clipPath id="clip0_4_1350">
<rect width="180" height="180" fill="white" transform="translate(0.5)"/>
</clipPath>
</defs>
</svg>
