<svg width="105" height="104" viewBox="0 0 105 104" fill="none" xmlns="http://www.w3.org/2000/svg">
<g clip-path="url(#clip0_4_1370)">
<g filter="url(#filter0_i_4_1370)">
<circle cx="52.5" cy="52" r="52" fill="#9FF9FF"/>
</g>
<circle cx="52.5" cy="52" r="51" stroke="#AEF7FF" stroke-width="2"/>
<g filter="url(#filter1_i_4_1370)">
<circle cx="53" cy="52.5" r="46.5" fill="#AEF7FF"/>
</g>
<circle cx="53" cy="52.5" r="44.5" stroke="url(#paint0_linear_4_1370)" stroke-width="4"/>
<g clip-path="url(#clip1_4_1370)">
<path d="M57.855 40.2453L67.7547 50.145C68.2463 50.6372 68.5224 51.3044 68.5224 52C68.5224 52.6957 68.2463 53.3629 67.7547 53.8551L57.8568 63.7566C57.3643 64.249 56.6964 64.5256 56 64.5256C55.3036 64.5256 54.6357 64.249 54.1432 63.7566C53.6508 63.2641 53.3742 62.5962 53.3742 61.8998C53.3742 61.2034 53.6508 60.5355 54.1432 60.0431L59.5612 54.6251H39.375C38.6788 54.6251 38.0111 54.3485 37.5188 53.8562C37.0266 53.3639 36.75 52.6962 36.75 52C36.75 51.3039 37.0266 50.6362 37.5188 50.1439C38.0111 49.6516 38.6788 49.375 39.375 49.375H59.5612L54.145 43.957C53.6528 43.4646 53.3764 42.7968 53.3765 42.1006C53.3767 41.4043 53.6534 40.7366 54.1459 40.2444C54.6383 39.7522 55.3061 39.4758 56.0024 39.476C56.6986 39.4761 57.3663 39.7529 57.8585 40.2453H57.855Z" fill="#2ED7F4"/>
</g>
</g>
<defs>
<filter id="filter0_i_4_1370" x="0.5" y="-11" width="104" height="115" filterUnits="userSpaceOnUse" color-interpolation-filters="sRGB">
<feFlood flood-opacity="0" result="BackgroundImageFix"/>
<feBlend mode="normal" in="SourceGraphic" in2="BackgroundImageFix" result="shape"/>
<feColorMatrix in="SourceAlpha" type="matrix" values="0 0 0 0 0 0 0 0 0 0 0 0 0 0 0 0 0 0 127 0" result="hardAlpha"/>
<feOffset dy="-11"/>
<feGaussianBlur stdDeviation="11.3"/>
<feComposite in2="hardAlpha" operator="arithmetic" k2="-1" k3="1"/>
<feColorMatrix type="matrix" values="0 0 0 0 0 0 0 0 0 0 0 0 0 0 0 0 0 0 0.25 0"/>
<feBlend mode="normal" in2="shape" result="effect1_innerShadow_4_1370"/>
</filter>
<filter id="filter1_i_4_1370" x="6.5" y="6" width="93" height="104" filterUnits="userSpaceOnUse" color-interpolation-filters="sRGB">
<feFlood flood-opacity="0" result="BackgroundImageFix"/>
<feBlend mode="normal" in="SourceGraphic" in2="BackgroundImageFix" result="shape"/>
<feColorMatrix in="SourceAlpha" type="matrix" values="0 0 0 0 0 0 0 0 0 0 0 0 0 0 0 0 0 0 127 0" result="hardAlpha"/>
<feMorphology radius="11" operator="dilate" in="SourceAlpha" result="effect1_innerShadow_4_1370"/>
<feOffset dy="11"/>
<feGaussianBlur stdDeviation="16.05"/>
<feComposite in2="hardAlpha" operator="arithmetic" k2="-1" k3="1"/>
<feColorMatrix type="matrix" values="0 0 0 0 0 0 0 0 0 0 0 0 0 0 0 0 0 0 0.15 0"/>
<feBlend mode="normal" in2="shape" result="effect1_innerShadow_4_1370"/>
</filter>
<linearGradient id="paint0_linear_4_1370" x1="53" y1="6" x2="53" y2="99" gradientUnits="userSpaceOnUse">
<stop stop-color="#83F3FF"/>
<stop offset="1" stop-color="#81C3CF"/>
</linearGradient>
<clipPath id="clip0_4_1370">
<rect width="104" height="104" fill="white" transform="translate(0.5)"/>
</clipPath>
<clipPath id="clip1_4_1370">
<rect width="42" height="42" fill="white" transform="translate(31.5 31)"/>
</clipPath>
</defs>
</svg>
