<svg width="175" height="43" viewBox="0 0 175 43" fill="none" xmlns="http://www.w3.org/2000/svg">
<path fill-rule="evenodd" clip-rule="evenodd" d="M174.729 33.7497C167.416 46.1482 155.834 42.5506 152.356 39.7337C150.876 40.7382 148.28 42.9397 144.818 42.6855C137.447 42.1444 134.807 31.6103 134.807 31.6103C134.86 31.6524 132.612 32.3863 131.396 32.3732C131.381 35.4624 128.71 42.8418 121.503 42.7474C113.416 42.642 111.772 30.5937 111.772 30.5937C111.772 30.5937 110.968 31.7112 107.908 32.8242C108.062 30.4509 107.949 42.3862 98.2563 42.5616C90.5936 42.7005 88.5251 30.4079 88.5251 30.4079C88.5251 30.4079 87.1958 31.7888 84.6196 32.2677C84.7834 29.8557 84.5172 42.6021 74.8233 42.5616C68.2723 42.5344 66.0337 34.9894 66.2078 33.9422C66.43 32.6076 63.9938 42.7493 57.6305 42.5913C55.0046 42.5142 53.0469 40.6129 51.8184 38.0782C50.1739 39.9599 47.7863 42.5913 45.1079 42.5913C40.3 42.5913 38.1804 38.57 38.5394 27.0845C38.57 25.7222 38.4717 25.1864 37.1175 24.9826C36.3047 24.847 35.4723 24.5903 34.5915 24.4549C34.3092 25.3969 31.9149 42.2848 23.6819 42.6054C20.9198 42.7129 19.4096 40.3202 18.1693 38.5444C16.268 41.0596 13.7582 42.6855 10.1829 42.6855C4.12643 42.6855 0 37.7894 0 31.7498C0 25.71 4.12643 20.8145 10.1829 20.8145C11.2537 20.8145 11.5543 20.9679 12.5326 21.2534C10.5207 2.93595 15.2719 0.0731928 19.4282 0.0731928C23.4185 0.0731928 30.2354 9.3345 20.6434 32.8261C22.773 39.833 27.364 39.4367 29.5702 25.0126C30.0192 22.0806 28.8186 18.124 30.686 17.5718C34.0997 16.5626 34.4619 19.5905 36.0624 20.095C37.7549 20.6282 38.7427 20.5761 40.3674 20.9154C43.1437 21.4576 44.2271 22.949 43.8889 26.2707C43.4827 30.4737 42.7721 36.5911 44.9386 37.3367C46.501 37.8783 49.3535 34.6383 49.854 32.8655C50.3544 31.0927 50.4589 30.4859 50.5034 29.1856C50.5711 26.4066 50.6561 24.3694 51.1299 22.2677C51.3328 21.4544 51.564 20.9159 52.4841 20.8791C53.2412 20.8598 54.6258 20.6318 55.2353 21.1062C56.0477 21.7166 55.9461 22.3359 55.8529 23.966C54.9081 47.2074 62.1798 35.6051 64.348 26.3152C63.5759 15.8104 64.106 0.265553 70.6887 0.00483812C74.1123 -0.130748 75.6258 2.6119 75.7923 4.65903C76.2632 10.4409 73.6255 20.0184 70.1566 26.4593C68.174 39.6016 78.8248 42.2001 80.5281 31.71C77.7414 30.3851 74.7298 25.0222 77.1805 22.4088C78.5557 20.942 84.2798 23.0491 84.3735 27.6447C87.1813 26.8938 87.5562 25.3085 87.5951 25.5712C86.8233 15.0664 87.5391 0.265689 94.1224 0.00497234C97.5455 -0.130614 99.0587 2.61204 99.2252 4.65917C99.6961 10.441 97.0584 20.0186 93.59 26.4595C91.6072 39.6016 102.258 42.2003 103.961 31.7102C101.898 31.3121 97.5427 25.608 100.056 22.4089C101.398 20.6994 107.102 24.2545 107.74 27.7969C110.437 27.0336 110.804 25.4987 110.842 25.757C110.07 15.2526 110.786 0.451857 117.37 0.191141C120.793 0.0555542 122.306 2.7982 122.472 4.84534C122.943 10.6272 120.306 20.2049 116.837 26.6458C114.854 39.7881 125.505 42.3862 127.208 31.8961C124.373 31.424 120.344 25.4013 123.587 22.3202C124.883 21.0891 129.833 24.2847 130.992 27.9305C132.603 27.8685 133.605 27.3131 133.82 27.2572C131.249 14.9252 133.163 0.128667 140.245 0.00515314C144.072 -0.0615406 147.814 2.07445 146.172 13.8067C144.604 25.0006 138.968 29.6982 138.981 29.77C139.309 31.1111 142.201 42.3341 149.483 36.4124C149.106 35.5588 148.729 34.6868 148.518 33.6304C147.311 27.4766 149.682 20.5259 156.126 19.4025C159.818 18.7589 163.296 20.5564 163.846 24.6087C164.75 31.2396 158.763 36.0417 156.486 37.0834C155.466 36.5041 165.73 43.0868 171.821 29.8948C172.175 29.1416 172.6 29.2054 173.152 29.5937C173.542 29.8679 175.761 31.9702 174.729 33.7497ZM14.5884 30.1205C14.2784 29.1939 13.6424 27.1522 13.4175 26.2675C12.1787 25.1903 11.2946 25.0153 9.70456 25.0153C6.17105 25.0153 4.09129 28.2823 4.09129 31.8051C4.09129 35.3277 6.35704 38.5951 9.89056 38.5951C12.9528 38.5951 15.2834 36.5131 15.9944 33.5657C15.4967 32.4167 15.003 31.3607 14.5884 30.1205ZM19.3416 4.92194C16.8588 4.92194 16.0166 10.8448 16.18 15.8975C16.3246 20.3647 17.5729 24.2976 18.2204 26.0598C18.3848 26.2806 18.3543 26.1369 18.501 26.3711C22.812 16.9256 21.024 4.92194 19.3416 4.92194ZM71.0433 5.108C67.8344 4.73997 67.8551 18.1076 68.2535 21.1062C69.9201 18.44 72.8152 5.82587 71.0433 5.108ZM94.4763 5.108C91.2673 4.73997 91.2881 18.1076 91.6866 21.1062C93.3531 18.44 96.2484 5.82587 94.4763 5.108ZM117.724 5.29398C114.514 4.92595 114.535 18.2937 114.934 21.2924C116.6 18.626 119.496 6.0118 117.724 5.29398ZM140.599 4.32547C135.599 5.32946 136.763 21.9993 137.523 24.923C143.412 16.8342 143.533 4.02164 140.599 4.32547ZM159.336 25.1572C159.082 24.0943 157.811 23.5262 156.934 23.6662C154.423 24.0091 151.989 27.1356 152.931 31.8956C153.141 32.9557 153.666 33.9316 153.657 33.8991C159.276 30.1299 159.753 27.1598 159.336 25.1572ZM53.4683 17.1997C52.7508 17.1998 52.0494 16.9872 51.4528 16.5887C50.8562 16.1901 50.391 15.6236 50.1163 14.9608C49.8416 14.2979 49.7698 13.5685 49.9098 12.8648C50.0495 12.1611 50.3952 11.5147 50.9024 11.0073C51.4097 10.4999 52.0561 10.1544 52.7597 10.0144C53.4634 9.87435 54.1929 9.94617 54.8558 10.2208C55.5187 10.4953 56.0852 10.9603 56.4838 11.5569C56.8824 12.1535 57.0951 12.8549 57.0951 13.5724C57.0951 14.0487 57.0014 14.5204 56.819 14.9604C56.6369 15.4005 56.3698 15.8004 56.0329 16.1372C55.6961 16.474 55.2963 16.7412 54.8563 16.9235C54.4162 17.1058 53.9447 17.1997 53.4683 17.1997Z" fill="#515151"/>
</svg>
