<svg width="41" height="39" viewBox="0 0 41 39" fill="none" xmlns="http://www.w3.org/2000/svg">
<path d="M26.4792 22.75H25.1296L24.6513 22.3112C26.3254 20.4587 27.3333 18.0537 27.3333 15.4375C27.3333 9.60375 22.3621 4.875 16.2292 4.875C10.0963 4.875 5.125 9.60375 5.125 15.4375C5.125 21.2712 10.0963 26 16.2292 26C18.9796 26 21.5079 25.0412 23.4554 23.4487L23.9167 23.9037V25.1875L32.4583 33.2962L35.0037 30.875L26.4792 22.75ZM16.2292 22.75C11.9754 22.75 8.54167 19.4837 8.54167 15.4375C8.54167 11.3912 11.9754 8.125 16.2292 8.125C20.4829 8.125 23.9167 11.3912 23.9167 15.4375C23.9167 19.4837 20.4829 22.75 16.2292 22.75Z" fill="black"/>
</svg>
